<svg width="22" height="20" viewBox="0 0 22 20" fill="none" xmlns="http://www.w3.org/2000/svg">
<g clip-path="url(#clip0_1_732)">
<path d="M21.0343 20V19.9992H21.0394V12.6642C21.0394 9.07587 20.2461 6.31171 15.9384 6.31171C13.8675 6.31171 12.4778 7.41837 11.9105 8.46754H11.8506V6.64671H7.76617V19.9992H12.0192V13.3875C12.0192 11.6467 12.358 9.96337 14.5718 9.96337C16.753 9.96337 16.7856 11.95 16.7856 13.4992V20H21.0343Z" fill="#AFB1B8"/>
<path d="M0.840759 6.64746H5.09887V20H0.840759V6.64746Z" fill="#AFB1B8"/>
<path d="M2.9681 0C1.60664 0 0.501892 1.07583 0.501892 2.40167C0.501892 3.7275 1.60664 4.82583 2.9681 4.82583C4.32957 4.82583 5.43432 3.7275 5.43432 2.40167C5.43346 1.07583 4.32871 0 2.9681 0V0Z" fill="#AFB1B8"/>
</g>
<defs>
<clipPath id="clip0_1_732">
<rect width="20.5375" height="20" fill="white" transform="translate(0.501892)"/>
</clipPath>
</defs>
</svg>
