<svg width="22" height="20" viewBox="0 0 22 20" fill="none" xmlns="http://www.w3.org/2000/svg">
<g clip-path="url(#clip0_1_742)">
<path d="M21.1369 3.79875C20.3732 4.125 19.5594 4.34125 18.7109 4.44625C19.5837 3.93875 20.2499 3.14125 20.5631 2.18C19.7493 2.6525 18.8508 2.98625 17.8933 3.1725C17.1205 2.37125 16.0192 1.875 14.8178 1.875C12.4868 1.875 10.6101 3.7175 10.6101 5.97625C10.6101 6.30125 10.6384 6.61375 10.7077 6.91125C7.20734 6.745 4.11002 5.11125 2.02932 2.6225C1.66606 3.23625 1.45299 3.93875 1.45299 4.695C1.45299 6.115 2.20389 7.37375 3.32318 8.1025C2.64673 8.09 1.98311 7.89875 1.4209 7.5975C1.4209 7.61 1.4209 7.62625 1.4209 7.6425C1.4209 9.635 2.88034 11.29 4.79418 11.6712C4.45146 11.7625 4.07793 11.8062 3.69029 11.8062C3.42073 11.8062 3.14861 11.7913 2.89318 11.7362C3.43871 13.36 4.98672 14.5538 6.82739 14.5925C5.3949 15.6838 3.57605 16.3412 1.60702 16.3412C1.26173 16.3412 0.930563 16.3263 0.599396 16.285C2.46446 17.4563 4.67481 18.125 7.05844 18.125C14.8062 18.125 19.0421 11.875 19.0421 6.4575C19.0421 6.27625 19.0357 6.10125 19.0267 5.9275C19.8623 5.35 20.5644 4.62875 21.1369 3.79875Z" fill="#AFB1B8"/>
</g>
<defs>
<clipPath id="clip0_1_742">
<rect width="20.5375" height="20" fill="white" transform="translate(0.599396)"/>
</clipPath>
</defs>
</svg>
