<svg width="21" height="20" viewBox="0 0 21 20" fill="none" xmlns="http://www.w3.org/2000/svg">
<g clip-path="url(#clip0_1_748)">
<path d="M20.6655 5.88005C20.6174 4.81738 20.4409 4.0868 20.1882 3.45374C19.9274 2.78176 19.5262 2.18014 19.0005 1.68002C18.487 1.1721 17.8651 0.777435 17.1831 0.527447C16.5292 0.281274 15.7829 0.109427 14.6917 0.0625732C13.5923 0.0117516 13.2433 0 10.455 0C7.6666 0 7.31759 0.0117516 6.22228 0.0586052C5.13104 0.105459 4.38083 0.277459 3.73092 0.523479C3.04072 0.777435 2.42294 1.16814 1.90937 1.68002C1.38781 2.18014 0.982688 2.78573 0.725825 3.44992C0.473038 4.0868 0.296572 4.81341 0.248459 5.87609C0.196271 6.9467 0.184204 7.28658 0.184204 10.002C0.184204 12.7173 0.196271 13.0572 0.244384 14.1239C0.292497 15.1865 0.469119 15.9171 0.721907 16.5502C0.982688 17.2221 1.38781 17.8238 1.90937 18.3239C2.42294 18.8318 3.0448 19.2265 3.72684 19.4765C4.38083 19.7226 5.12697 19.8945 6.21836 19.9413C7.31352 19.9883 7.66269 19.9999 10.451 19.9999C13.2394 19.9999 13.5884 19.9883 14.6837 19.9413C15.7749 19.8945 16.5252 19.7226 17.1751 19.4765C18.5553 18.9568 19.6465 17.8941 20.1802 16.5502C20.4328 15.9133 20.6094 15.1865 20.6575 14.1239C20.7056 13.0572 20.7177 12.7173 20.7177 10.002C20.7177 7.28658 20.7136 6.9467 20.6655 5.88005ZM18.8161 14.0457C18.7719 15.0225 18.6034 15.5499 18.463 15.9015C18.1179 16.7728 17.4078 17.4643 16.5131 17.8004C16.152 17.9372 15.6065 18.1012 14.6074 18.1441C13.5241 18.1911 13.1993 18.2027 10.459 18.2027C7.71879 18.2027 7.38984 18.1911 6.31051 18.1441C5.30751 18.1012 4.76589 17.9372 4.40481 17.8004C3.95957 17.6402 3.55429 17.3862 3.22534 17.0541C2.88432 16.7298 2.62354 16.3391 2.45898 15.9055C2.31856 15.5539 2.15009 15.0225 2.10605 14.0497C2.05778 12.9948 2.04587 12.6783 2.04587 10.0097C2.04587 7.34122 2.05778 7.02087 2.10605 5.96995C2.15009 4.99319 2.31856 4.46575 2.45898 4.11412C2.62354 3.68038 2.88432 3.28586 3.22941 2.96536C3.56229 2.63327 3.96349 2.37931 4.40888 2.21921C4.76996 2.08247 5.31566 1.9184 6.31459 1.87537C7.39783 1.82851 7.72287 1.81676 10.4629 1.81676C13.2073 1.81676 13.5321 1.82851 14.6115 1.87537C15.6145 1.9184 16.1561 2.08247 16.5172 2.21921C16.9624 2.37931 17.3677 2.63327 17.6966 2.96536C18.0376 3.28967 18.2984 3.68038 18.463 4.11412C18.6034 4.46575 18.7719 4.99701 18.8161 5.96995C18.8642 7.02484 18.8763 7.34122 18.8763 10.0097C18.8763 12.6783 18.8642 12.9908 18.8161 14.0457Z" fill="#AFB1B8"/>
<path d="M10.455 4.8642C7.54237 4.8642 5.1792 7.16537 5.1792 10.0019C5.1792 12.8385 7.54237 15.1396 10.455 15.1396C13.3678 15.1396 15.7308 12.8385 15.7308 10.0019C15.7308 7.16537 13.3678 4.8642 10.455 4.8642ZM10.455 13.3346C8.56543 13.3346 7.03272 11.8422 7.03272 10.0019C7.03272 8.16165 8.56543 6.66921 10.455 6.66921C12.3447 6.66921 13.8773 8.16165 13.8773 10.0019C13.8773 11.8422 12.3447 13.3346 10.455 13.3346Z" fill="#AFB1B8"/>
<path d="M17.1712 4.6611C17.1712 5.32346 16.6197 5.86052 15.9394 5.86052C15.2592 5.86052 14.7077 5.32346 14.7077 4.6611C14.7077 3.99858 15.2592 3.46167 15.9394 3.46167C16.6197 3.46167 17.1712 3.99858 17.1712 4.6611Z" fill="#AFB1B8"/>
</g>
<defs>
<clipPath id="clip0_1_748">
<rect width="20.5375" height="20" fill="white" transform="translate(0.148132)"/>
</clipPath>
</defs>
</svg>
